<svg xmlns="http://www.w3.org/2000/svg" viewBox="0 0 226.8 127.6"><path fill="#FFF" d="M32.8 74.3V37.6H35v36.7h-2.2zM82.4 73.2c0 .7-.3 1.1-1 1.1h-2.9c-.6 0-1-.3-1.2-.8l-15.8-30c-.6-1.2-1.4-2.6-2-3.9h-1.2c.1 1.3.1 2.7.1 4v30.7h-2.2V38.6c0-.7.4-1.1 1.1-1.1H60c.6 0 1 .3 1.3.8l15.4 29.3c.8 1.4 1.6 3 2.4 4.6h1.3c0-1.7-.1-3.3-.1-5V37.6h2.2v35.6zM114.4 39.5v34.8h-2.2V39.5H99.6v-1.9H127v1.9h-12.6zM144.3 74.3V54.4h2.2v19.9h-2.2zM170.1 61.3l-4.5 12.9h-2.3l12.8-36c.2-.4.5-.7 1-.7h3c.4 0 .8.3 1 .7l12.8 36h-2.3L187 61.3h-16.9zm10.3-18.9l-1.1-3h-1.5l-1.1 3-6 17.1h15.5l-5.8-17.1z"/><path fill="#67B2E3" d="M144.3 37.6c3.7 2.1 7.2 4.1 10.8 6.1-3.6 2.4-7.1 4.8-10.8 7.4V37.6z"/></svg>